<svg width="10" height="10" viewBox="0 0 10 10" fill="none" xmlns="http://www.w3.org/2000/svg">
<path d="M0.5 5.00277C0.5 4.72662 0.723858 4.50277 1 4.50277H9C9.27614 4.50277 9.5 4.72662 9.5 5.00277C9.5 5.27891 9.27614 5.50277 9 5.50277H1C0.723858 5.50277 0.5 5.27891 0.5 5.00277Z" fill="#3337BF"/>
<path d="M4.64645 0.646447C4.84171 0.451184 5.15829 0.451184 5.35355 0.646447L9.35355 4.64645C9.54882 4.84171 9.54882 5.15829 9.35355 5.35355L5.35355 9.35355C5.15829 9.54882 4.84171 9.54882 4.64645 9.35355C4.45118 9.15829 4.45118 8.84171 4.64645 8.64645L8.29289 5L4.64645 1.35355C4.45118 1.15829 4.45118 0.841709 4.64645 0.646447Z" fill="#3337BF"/>
</svg>
