<svg width="16" height="18" viewBox="0 0 16 18" fill="none" xmlns="http://www.w3.org/2000/svg">
<path fill-rule="evenodd" clip-rule="evenodd" d="M8.00033 3.79175C4.43349 3.79175 1.54199 6.68324 1.54199 10.2501C1.54199 13.8169 4.43349 16.7084 8.00033 16.7084C11.5672 16.7084 14.4587 13.8169 14.4587 10.2501C14.4587 6.68324 11.5672 3.79175 8.00033 3.79175ZM0.291992 10.2501C0.291992 5.99289 3.74313 2.54175 8.00033 2.54175C12.2575 2.54175 15.7087 5.99289 15.7087 10.2501C15.7087 14.5073 12.2575 17.9584 8.00033 17.9584C3.74313 17.9584 0.291992 14.5073 0.291992 10.2501Z" fill="white"/>
<path fill-rule="evenodd" clip-rule="evenodd" d="M4.87533 0.666748C4.87533 0.32157 5.15515 0.041748 5.50033 0.041748H10.5003C10.8455 0.041748 11.1253 0.32157 11.1253 0.666748C11.1253 1.01193 10.8455 1.29175 10.5003 1.29175H5.50033C5.15515 1.29175 4.87533 1.01193 4.87533 0.666748Z" fill="white"/>
<path fill-rule="evenodd" clip-rule="evenodd" d="M8.00033 6.29175C8.3455 6.29175 8.62533 6.57157 8.62533 6.91675V10.2501C8.62533 10.5953 8.3455 10.8751 8.00033 10.8751C7.65515 10.8751 7.37533 10.5953 7.37533 10.2501V6.91675C7.37533 6.57157 7.65515 6.29175 8.00033 6.29175Z" fill="white"/>
<path fill-rule="evenodd" clip-rule="evenodd" d="M7.37533 10.2501C7.37533 9.9049 7.65515 9.62508 8.00033 9.62508H11.3337C11.6788 9.62508 11.9587 9.9049 11.9587 10.2501C11.9587 10.5953 11.6788 10.8751 11.3337 10.8751H8.00033C7.65515 10.8751 7.37533 10.5953 7.37533 10.2501Z" fill="white"/>
<path fill-rule="evenodd" clip-rule="evenodd" d="M8.00033 0.041748C8.3455 0.041748 8.62533 0.32157 8.62533 0.666748V2.33341C8.62533 2.67859 8.3455 2.95841 8.00033 2.95841C7.65515 2.95841 7.37533 2.67859 7.37533 2.33341V0.666748C7.37533 0.32157 7.65515 0.041748 8.00033 0.041748Z" fill="white"/>
</svg>
