<svg width="797" height="1167" viewBox="0 0 797 1167" fill="none" xmlns="http://www.w3.org/2000/svg">
<g clip-path="url(#clip0_153_177)">
<path d="M509.426 1056.37L496.269 1133.52L458.127 1137.21L471.344 1051.04L509.426 1056.37Z" fill="#FFEEE3"/>
<path d="M501.499 1128.2C500.714 1125.48 497.877 1124.45 495.825 1126.08C491.903 1129.35 484.842 1133.28 474.763 1131.89C464.262 1130.5 460.52 1124.09 459.132 1119.61C458.408 1117.26 456.175 1115.99 454.183 1116.89L382.788 1146.88C378.805 1148.7 375.666 1152.27 374.037 1156.74C372.468 1160.97 375.183 1165.63 379.167 1165.69L496.127 1166.41C500.473 1166.41 503.973 1162.3 503.732 1157.28L502.706 1132.86C502.706 1132.43 502.645 1132.07 502.524 1131.65L501.499 1128.2Z" fill="#1F252A"/>
<path d="M663.616 701.368H679.187V1156.26H663.616V701.368Z" fill="#2A272D"/>
<path d="M697.339 607.826L585.81 813.049L515.26 1098.15H451.227L496.913 781.304L697.339 607.826Z" fill="#232322"/>
<path d="M605.314 694.656H744.725C764.701 694.656 780.935 678.451 780.935 658.376C780.935 638.362 764.761 622.096 744.725 622.096H605.314C585.338 622.096 569.103 638.362 569.103 658.376C569.103 678.451 585.338 694.656 605.314 694.656Z" fill="#178C8C"/>
<path d="M604.474 694.656H738.453V708.08H604.474V694.656Z" fill="#2A272D"/>
<path d="M604.474 1045.84H738.453V1059.27H604.474V1045.84Z" fill="#2A272D"/>
<path d="M678.648 236.142C705.504 232.877 730.972 249.142 741.232 274.175C749.922 295.278 757.164 325.874 749.44 361.368C725.903 470.026 739.964 545.186 739.964 545.186H612.442L612.925 397.224C612.925 397.224 604.113 379.991 599.346 357.437C592.647 325.874 595.182 321.762 613.589 293.827L652.757 245.937C652.696 245.937 661.448 238.198 678.648 236.142Z" fill="#178C8C"/>
<path d="M446.698 340.99C438.189 323.938 417.549 317.045 400.53 325.571C383.511 334.096 376.631 354.776 385.14 371.828C393.65 388.879 414.29 395.772 431.309 387.246C448.328 378.781 455.208 358.041 446.698 340.99Z" fill="#FFEEE3"/>
<path d="M439.163 331.014L503.98 392.689L479.357 420.141L428.843 376.787L439.163 331.014Z" fill="#FFEEE3"/>
<path d="M722.343 331.859L605.08 510.416C600.554 517.249 591.26 518.882 584.682 513.923L443.159 402.544L471.825 353.264L581.302 437.071L657.827 295.277C668.027 273.993 695.124 267.523 713.833 281.793C729.404 293.644 733.085 315.533 722.343 331.859Z" fill="#178C8C"/>
<path d="M671.28 263.17C678.703 263.109 686.61 260.025 692.464 257.001C698.258 254.038 701.878 247.931 701.818 241.401L700.611 121.436L648.286 121.678L649.493 240.132C649.554 253.737 659.331 263.23 671.28 263.17Z" fill="#FFEEE3"/>
<path d="M649.145 206.876L670.752 176.219C670.752 176.219 683.969 211.229 649.267 221.992L649.145 206.876Z" fill="#F2C09E"/>
<path d="M602.006 121.92C602.187 157.655 631.216 186.437 666.883 186.256C702.551 186.074 731.278 156.99 731.097 121.254C730.916 85.5188 701.887 56.737 666.22 56.9184C630.612 57.0998 601.885 86.1839 602.006 121.92Z" fill="#FFEEE3"/>
<path d="M644.56 207.238C661.458 207.178 675.158 193.331 675.037 176.4L674.856 132.139L602.072 121.92L602.253 165.275C602.374 188.554 621.264 207.359 644.56 207.238Z" fill="#FFEEE3"/>
<path d="M604.005 136.371L590.003 157.232C588.012 160.618 590.607 164.79 594.771 164.79L611.126 167.814L604.005 136.371Z" fill="#FFEEE3"/>
<path d="M674.771 149.856L647.312 148.889C647.312 148.889 644.958 125.004 639.587 119.26C634.216 113.515 631.5 87.9992 631.5 87.9992C631.5 87.9992 644.476 103.902 648.278 120.349L590.763 118.897C590.763 118.897 582.193 48.9981 669.279 45.612C756.427 42.2259 754.013 124.823 736.873 141.209C723.234 154.27 701.145 186.318 701.145 186.318C701.145 186.318 702.171 150.824 674.771 149.856Z" fill="#4C1827"/>
<path d="M654.865 141.39C654.503 151.609 662.469 160.135 672.608 160.498C682.808 160.861 691.317 152.879 691.74 142.721C692.102 132.502 684.136 123.977 673.997 123.553C663.798 123.191 655.288 131.172 654.865 141.39Z" fill="#FFEEE3"/>
<path d="M708.093 36.6624C705.316 59.5792 721.551 80.3796 744.364 83.2216C767.237 86.003 787.998 69.7376 790.834 46.8209C793.61 23.9041 777.376 3.10364 754.503 0.322185C731.629 -2.51973 710.869 13.7457 708.093 36.6624Z" fill="#4C1827"/>
<path d="M699.768 249.686C699.768 249.686 694.759 265.347 624.872 279.919L657.341 235.658L699.768 249.686Z" fill="#FFEEE3"/>
<path d="M671.404 1133.28L765.069 1165.39H577.86L671.404 1133.28Z" fill="#2A272D"/>
<path d="M664.348 940.936L715.586 1002.67L678.772 1016.7L627.353 951.336L664.348 940.936Z" fill="#FFEEE3"/>
<path d="M713.827 994.267C712.017 992.151 708.999 992.272 707.792 994.63C705.499 999.225 700.67 1005.63 690.833 1008.42C680.634 1011.32 669.469 1002.37 666.451 998.802C664.882 996.928 662.287 996.625 660.839 998.318L598.134 1042.4C595.237 1045.66 593.788 1050.2 594.03 1054.98C594.271 1059.45 598.617 1062.65 602.298 1061.08L726.38 1029.64C730.363 1027.89 731.932 1022.69 729.699 1018.21L716.784 998.016C716.603 997.653 716.362 997.29 716.12 996.988L713.827 994.267Z" fill="#1F252A"/>
<path d="M743.636 545.185C743.636 545.185 782.02 632.738 645.626 679.358L551.357 767.095L697.287 962.885L632.047 986.527L454.856 797.63C441.76 782.332 441.216 758.871 453.588 742.908L612.372 545.124H743.636V545.185Z" fill="#383635"/>
<path d="M1.44305 467.848H467.416V493.849H1.44305V467.848Z" fill="#178C8C"/>
<path d="M352.796 1165.51V493.849" stroke="#2A272D" stroke-width="5.31347" stroke-miterlimit="10"/>
<path d="M119.785 1165.51V493.849" stroke="#2A272D" stroke-width="5.31347" stroke-miterlimit="10"/>
<path d="M174.838 453.7H368.685V466.277H174.838V453.7Z" fill="#2A272D"/>
<path d="M174.844 466.338L112.079 282.762L125.235 279.617L186.733 455.937L174.844 466.338Z" fill="#2A272D"/>
<path d="M614.06 496.751L707.665 354.171L614.06 496.751Z" fill="#178C8C"/>
<path d="M614.06 496.751L707.665 354.171" stroke="#0E8585" stroke-width="1.82784" stroke-miterlimit="10" stroke-linecap="round" stroke-linejoin="round"/>
<path d="M608.403 384.888L644.131 328.291" stroke="#0E8585" stroke-width="1.82784" stroke-miterlimit="10" stroke-linecap="round" stroke-linejoin="round"/>
</g>
<defs>
<clipPath id="clip0_153_177">
<rect width="796.636" height="1167" fill="white" transform="matrix(-1 0 0 1 796.636 0)"/>
</clipPath>
</defs>
</svg>
