<svg width="40" height="28" viewBox="0 0 40 28" fill="none" xmlns="http://www.w3.org/2000/svg">
<path fill-rule="evenodd" clip-rule="evenodd" d="M19.9992 24.3147C17.881 26.3707 15.1334 27.6119 12.1311 27.6119C5.4313 27.6119 0 21.4308 0 13.806C0 6.18114 5.4313 0 12.1311 0C15.1334 0 17.881 1.24119 19.9992 3.29729C22.1174 1.24119 24.865 0 27.8673 0C34.5671 0 39.9984 6.18114 39.9984 13.806C39.9984 21.4308 34.5671 27.6119 27.8673 27.6119C24.865 27.6119 22.1174 26.3707 19.9992 24.3147Z" fill="#ED0006"/>
<path fill-rule="evenodd" clip-rule="evenodd" d="M20 24.3147C22.6088 21.7824 24.2631 18.014 24.2631 13.806C24.2631 9.59791 22.6088 5.82956 20 3.29729C22.1182 1.24119 24.8658 0 27.8681 0C34.5679 0 39.9992 6.18114 39.9992 13.806C39.9992 21.4308 34.5679 27.6119 27.8681 27.6119C24.8658 27.6119 22.1182 26.3707 20 24.3147Z" fill="#F9A000"/>
<path fill-rule="evenodd" clip-rule="evenodd" d="M20.0014 24.3147C22.6102 21.7824 24.2645 18.0141 24.2645 13.806C24.2645 9.59798 22.6102 5.82964 20.0014 3.29736C17.3926 5.82964 15.7383 9.59798 15.7383 13.806C15.7383 18.0141 17.3926 21.7824 20.0014 24.3147Z" fill="#FF5E00"/>
</svg>
