<svg width="22" height="22" viewBox="0 0 22 22" fill="none" xmlns="http://www.w3.org/2000/svg">
<path fill-rule="evenodd" clip-rule="evenodd" d="M2 1.70703C1.86193 1.70703 1.75 1.81896 1.75 1.95703V19.957C1.75 20.0951 1.86193 20.207 2 20.207H20C20.1381 20.207 20.25 20.0951 20.25 19.957V1.95703C20.25 1.81896 20.1381 1.70703 20 1.70703H2ZM0.25 1.95703C0.25 0.990533 1.0335 0.207031 2 0.207031H20C20.9665 0.207031 21.75 0.990533 21.75 1.95703V19.957C21.75 20.9235 20.9665 21.707 20 21.707H2C1.0335 21.707 0.25 20.9235 0.25 19.957V1.95703Z" fill="#222222"/>
<path fill-rule="evenodd" clip-rule="evenodd" d="M0.25 5.95703C0.25 5.54282 0.585786 5.20703 1 5.20703H21C21.4142 5.20703 21.75 5.54282 21.75 5.95703C21.75 6.37124 21.4142 6.70703 21 6.70703H1C0.585786 6.70703 0.25 6.37124 0.25 5.95703Z" fill="#222222"/>
<path fill-rule="evenodd" clip-rule="evenodd" d="M1 3.70703C1.41421 3.70703 1.75 4.04282 1.75 4.45703V10.457C1.75 10.8712 1.41421 11.207 1 11.207C0.585786 11.207 0.25 10.8712 0.25 10.457V4.45703C0.25 4.04282 0.585786 3.70703 1 3.70703Z" fill="#222222"/>
<path fill-rule="evenodd" clip-rule="evenodd" d="M21 3.70703C21.4142 3.70703 21.75 4.04282 21.75 4.45703V10.457C21.75 10.8712 21.4142 11.207 21 11.207C20.5858 11.207 20.25 10.8712 20.25 10.457V4.45703C20.25 4.04282 20.5858 3.70703 21 3.70703Z" fill="#222222"/>
<path fill-rule="evenodd" clip-rule="evenodd" d="M12.25 9.95703C12.25 9.54282 12.5858 9.20703 13 9.20703H17C17.4142 9.20703 17.75 9.54282 17.75 9.95703V16.957C17.75 17.3712 17.4142 17.707 17 17.707H13C12.5858 17.707 12.25 17.3712 12.25 16.957V9.95703ZM13.75 10.707V16.207H16.25V10.707H13.75Z" fill="#222222"/>
<path fill-rule="evenodd" clip-rule="evenodd" d="M4.25 9.95703C4.25 9.54282 4.58579 9.20703 5 9.20703H9C9.41421 9.20703 9.75 9.54282 9.75 9.95703V16.957C9.75 17.3712 9.41421 17.707 9 17.707H5C4.58579 17.707 4.25 17.3712 4.25 16.957C4.25 16.5428 4.58579 16.207 5 16.207H8.25V10.707H5C4.58579 10.707 4.25 10.3712 4.25 9.95703Z" fill="#222222"/>
<path fill-rule="evenodd" clip-rule="evenodd" d="M5.25 13.457C5.25 13.0428 5.58579 12.707 6 12.707H9C9.41421 12.707 9.75 13.0428 9.75 13.457C9.75 13.8712 9.41421 14.207 9 14.207H6C5.58579 14.207 5.25 13.8712 5.25 13.457Z" fill="#222222"/>
</svg>
