<svg width="22" height="22" viewBox="0 0 22 22" fill="none" xmlns="http://www.w3.org/2000/svg">
<path fill-rule="evenodd" clip-rule="evenodd" d="M0.25 3C0.25 2.58579 0.585786 2.25 1 2.25H21C21.4142 2.25 21.75 2.58579 21.75 3V21C21.75 21.4142 21.4142 21.75 21 21.75H1C0.585786 21.75 0.25 21.4142 0.25 21V3ZM1.75 3.75V20.25H20.25V3.75H1.75Z" fill="#222222"/>
<path fill-rule="evenodd" clip-rule="evenodd" d="M12.25 9C12.25 8.58579 12.5858 8.25 13 8.25H17C17.4142 8.25 17.75 8.58579 17.75 9V16C17.75 16.4142 17.4142 16.75 17 16.75H13C12.5858 16.75 12.25 16.4142 12.25 16V9ZM13.75 9.75V15.25H16.25V9.75H13.75Z" fill="#222222"/>
<path fill-rule="evenodd" clip-rule="evenodd" d="M7.5 0.25C7.91421 0.25 8.25 0.585786 8.25 1V5C8.25 5.41421 7.91421 5.75 7.5 5.75C7.08579 5.75 6.75 5.41421 6.75 5V1C6.75 0.585786 7.08579 0.25 7.5 0.25Z" fill="#222222"/>
<path fill-rule="evenodd" clip-rule="evenodd" d="M14.5 0.25C14.9142 0.25 15.25 0.585786 15.25 1V5C15.25 5.41421 14.9142 5.75 14.5 5.75C14.0858 5.75 13.75 5.41421 13.75 5V1C13.75 0.585786 14.0858 0.25 14.5 0.25Z" fill="#222222"/>
<path fill-rule="evenodd" clip-rule="evenodd" d="M4.25 9C4.25 8.58579 4.58579 8.25 5 8.25H9C9.41421 8.25 9.75 8.58579 9.75 9V16C9.75 16.4142 9.41421 16.75 9 16.75H5C4.58579 16.75 4.25 16.4142 4.25 16C4.25 15.5858 4.58579 15.25 5 15.25H8.25V9.75H5C4.58579 9.75 4.25 9.41421 4.25 9Z" fill="#222222"/>
<path fill-rule="evenodd" clip-rule="evenodd" d="M5.25 12.5C5.25 12.0858 5.58579 11.75 6 11.75H9C9.41421 11.75 9.75 12.0858 9.75 12.5C9.75 12.9142 9.41421 13.25 9 13.25H6C5.58579 13.25 5.25 12.9142 5.25 12.5Z" fill="#222222"/>
</svg>
