<svg width="31" height="27" viewBox="0 0 31 27" fill="none" xmlns="http://www.w3.org/2000/svg">
<path d="M0.296387 15.5C2.58298 10.2334 5.51888 5.49578 8.50701 0.645672C8.74217 0.263982 9.20257 0.0851289 9.63363 0.20829L11.2665 0.674828C11.8617 0.844885 12.161 1.50937 11.8939 2.06781L6.90463 12.5C10.8301 13.0753 12.4931 14.5 13.6989 17.5C14.6041 19.7523 14.4087 27 6.9087 27C-0.591301 27 -0.355415 17 0.296387 15.5Z" fill="#1C6FE3"/>
<path d="M16.3716 15.5C18.6582 10.2334 21.5941 5.49578 24.5822 0.645672C24.8174 0.263982 25.2778 0.0851289 25.7088 0.20829L27.3417 0.674828C27.9369 0.844885 28.2362 1.50937 27.9691 2.06781L22.9798 12.5C26.9052 13.0753 28.5683 14.5 29.774 17.5C30.6793 19.7523 30.4839 27 22.9839 27C15.4839 27 15.7198 17 16.3716 15.5Z" fill="#1C6FE3"/>
</svg>
