<svg width="18" height="19" viewBox="0 0 18 19" fill="none" xmlns="http://www.w3.org/2000/svg">
<path d="M2.12533 3.66675C2.12533 3.32157 2.40515 3.04175 2.75033 3.04175H15.2503C15.5955 3.04175 15.8753 3.32157 15.8753 3.66675V17.8334C15.8753 18.1786 15.5955 18.4584 15.2503 18.4584H2.75033C2.40515 18.4584 2.12533 18.1786 2.12533 17.8334V3.66675ZM3.37533 4.29175V17.2084H14.6253V4.29175H3.37533Z" fill="#222222"/>
<path d="M7.33366 7.20842C7.67884 7.20842 7.95866 7.48824 7.95866 7.83342V13.2501C7.95866 13.5953 7.67884 13.8751 7.33366 13.8751C6.98848 13.8751 6.70866 13.5953 6.70866 13.2501V7.83342C6.70866 7.48824 6.98848 7.20842 7.33366 7.20842Z" fill="#222222"/>
<path d="M10.667 7.20842C11.0122 7.20842 11.292 7.48824 11.292 7.83342V13.2501C11.292 13.5953 11.0122 13.8751 10.667 13.8751C10.3218 13.8751 10.042 13.5953 10.042 13.2501V7.83342C10.042 7.48824 10.3218 7.20842 10.667 7.20842Z" fill="#222222"/>
<path d="M0.0419922 3.66675C0.0419922 3.32157 0.321814 3.04175 0.666992 3.04175H17.3337C17.6788 3.04175 17.9587 3.32157 17.9587 3.66675C17.9587 4.01193 17.6788 4.29175 17.3337 4.29175H0.666992C0.321814 4.29175 0.0419922 4.01193 0.0419922 3.66675Z" fill="#222222"/>
<path d="M6.48935 0.866321C6.59907 0.666172 6.80916 0.541748 7.03741 0.541748H10.9908C11.2209 0.541748 11.4325 0.66824 11.5414 0.870996L12.8843 3.371C12.9883 3.56469 12.9829 3.79881 12.8701 3.98751C12.7572 4.17622 12.5535 4.29175 12.3337 4.29175H5.66699C5.44617 4.29175 5.24174 4.17523 5.12922 3.98523C5.0167 3.79523 5.01279 3.55995 5.11893 3.36632L6.48935 0.866321ZM7.40755 1.79175L6.72234 3.04175H11.2885L10.617 1.79175H7.40755Z" fill="#222222"/>
</svg>
