<svg width="18" height="15" viewBox="0 0 18 15" fill="none" xmlns="http://www.w3.org/2000/svg">
<path fill-rule="evenodd" clip-rule="evenodd" d="M0.0416718 1.25C0.0416718 0.904822 0.321494 0.625 0.666672 0.625H17.3333C17.6785 0.625 17.9583 0.904822 17.9583 1.25V13.75C17.9583 14.0952 17.6785 14.375 17.3333 14.375H0.666672C0.321494 14.375 0.0416718 14.0952 0.0416718 13.75V1.25ZM1.29167 1.875V13.125H16.7083V1.875H1.29167Z" fill="#242B35"/>
<path fill-rule="evenodd" clip-rule="evenodd" d="M0.166709 0.875037C0.373815 0.598894 0.765566 0.54293 1.04171 0.750037L9.00004 6.71879L16.9584 0.750037C17.2345 0.54293 17.6263 0.598894 17.8334 0.875037C18.0405 1.15118 17.9845 1.54293 17.7084 1.75004L9.37504 8.00004C9.15282 8.1667 8.84726 8.1667 8.62504 8.00004L0.291709 1.75004C0.0155662 1.54293 -0.0403982 1.15118 0.166709 0.875037Z" fill="#242B35"/>
<path fill-rule="evenodd" clip-rule="evenodd" d="M0.0416718 1.25C0.0416718 0.904822 0.321494 0.625 0.666672 0.625H9.00001C9.34518 0.625 9.62501 0.904822 9.62501 1.25C9.62501 1.59518 9.34518 1.875 9.00001 1.875H1.29167V7.5C1.29167 7.84518 1.01185 8.125 0.666672 8.125C0.321494 8.125 0.0416718 7.84518 0.0416718 7.5V1.25Z" fill="#242B35"/>
<path fill-rule="evenodd" clip-rule="evenodd" d="M8.37501 1.25C8.37501 0.904822 8.65483 0.625 9.00001 0.625H17.3333C17.6785 0.625 17.9583 0.904822 17.9583 1.25V7.5C17.9583 7.84518 17.6785 8.125 17.3333 8.125C16.9882 8.125 16.7083 7.84518 16.7083 7.5V1.875H9.00001C8.65483 1.875 8.37501 1.59518 8.37501 1.25Z" fill="#242B35"/>
</svg>
