<svg width="18" height="14" viewBox="0 0 18 14" fill="none" xmlns="http://www.w3.org/2000/svg">
<path fill-rule="evenodd" clip-rule="evenodd" d="M0.0419922 0.75C0.0419922 0.404822 0.321814 0.125 0.666992 0.125H17.3337C17.6788 0.125 17.9587 0.404822 17.9587 0.75V13.25C17.9587 13.5952 17.6788 13.875 17.3337 13.875H0.666992C0.321814 13.875 0.0419922 13.5952 0.0419922 13.25V0.75ZM1.29199 1.375V12.625H16.7087V1.375H1.29199Z" fill="#242B35"/>
<path fill-rule="evenodd" clip-rule="evenodd" d="M0.167029 0.375037C0.374136 0.0988944 0.765887 0.04293 1.04203 0.250037L9.00036 6.21879L16.9587 0.250037C17.2348 0.04293 17.6266 0.0988944 17.8337 0.375037C18.0408 0.651179 17.9848 1.04293 17.7087 1.25004L9.37536 7.50004C9.15314 7.6667 8.84758 7.6667 8.62536 7.50004L0.292029 1.25004C0.0158866 1.04293 -0.0400778 0.651179 0.167029 0.375037Z" fill="#242B35"/>
<path fill-rule="evenodd" clip-rule="evenodd" d="M0.0419922 0.75C0.0419922 0.404822 0.321814 0.125 0.666992 0.125H9.00033C9.3455 0.125 9.62533 0.404822 9.62533 0.75C9.62533 1.09518 9.3455 1.375 9.00033 1.375H1.29199V7C1.29199 7.34518 1.01217 7.625 0.666992 7.625C0.321814 7.625 0.0419922 7.34518 0.0419922 7V0.75Z" fill="#242B35"/>
<path fill-rule="evenodd" clip-rule="evenodd" d="M8.37533 0.75C8.37533 0.404822 8.65515 0.125 9.00033 0.125H17.3337C17.6788 0.125 17.9587 0.404822 17.9587 0.75V7C17.9587 7.34518 17.6788 7.625 17.3337 7.625C16.9885 7.625 16.7087 7.34518 16.7087 7V1.375H9.00033C8.65515 1.375 8.37533 1.09518 8.37533 0.75Z" fill="#242B35"/>
</svg>
