<svg width="17" height="17" viewBox="0 0 17 17" fill="none" xmlns="http://www.w3.org/2000/svg">
<path fill-rule="evenodd" clip-rule="evenodd" d="M8.33369 3.31439C9.55717 3.31439 10.6557 3.73485 11.5193 4.56061L13.9094 2.17045C12.4663 0.825758 10.5799 0 8.33369 0C5.07611 0 2.25793 1.86742 0.886719 4.59091L3.67081 6.75C4.32611 4.7803 6.16323 3.31439 8.33369 3.31439Z" fill="#EA4335"/>
<path fill-rule="evenodd" clip-rule="evenodd" d="M3.67045 9.92805C3.50379 9.42805 3.40909 8.89396 3.40909 8.34472C3.40909 7.79548 3.50379 7.26139 3.67045 6.76139V4.60229H0.886364C0.32197 5.72729 0 7.00002 0 8.34472C0 9.68942 0.32197 10.9621 0.886364 12.0871L3.67045 9.92805Z" fill="#FBBC05"/>
<path fill-rule="evenodd" clip-rule="evenodd" d="M8.33369 16.6659C10.5837 16.6659 12.4701 15.9197 13.8488 14.647L11.1557 12.556C10.4094 13.056 9.4549 13.3515 8.33369 13.3515C6.16323 13.3515 4.32611 11.8856 3.67081 9.91589H0.886719V12.075C2.25793 14.7985 5.07611 16.6659 8.33369 16.6659Z" fill="#34A853"/>
<path fill-rule="evenodd" clip-rule="evenodd" d="M16.3281 8.53304C16.3281 7.94213 16.2751 7.37395 16.1766 6.82849H8.32812V10.052H12.813C12.6198 11.0936 12.0327 11.9762 11.1501 12.5671V14.658H13.8433C15.419 13.2073 16.3281 11.0709 16.3281 8.53304Z" fill="#4285F4"/>
</svg>
