<svg width="208" height="40" viewBox="0 0 208 40" fill="none" xmlns="http://www.w3.org/2000/svg">
<path fill-rule="evenodd" clip-rule="evenodd" d="M14.5837 3.33333C14.5837 2.64297 15.1433 2.08333 15.8337 2.08333H20.8337C21.524 2.08333 22.0837 2.64297 22.0837 3.33333C22.0837 4.13581 23.003 5.41666 25.0003 5.41666C26.9977 5.41666 27.917 4.13581 27.917 3.33333C27.917 2.64297 28.4766 2.08333 29.167 2.08333H34.167C34.8573 2.08333 35.417 2.64297 35.417 3.33333V28.3333C35.417 29.0237 34.8573 29.5833 34.167 29.5833H29.167C28.4766 29.5833 27.917 29.0237 27.917 28.3333C27.917 27.4529 27.0228 26.25 25.0003 26.25C24.31 26.25 23.7503 25.6904 23.7503 25C23.7503 24.3096 24.31 23.75 25.0003 23.75C27.4858 23.75 29.5962 25.0962 30.2258 27.0833H32.917V4.58333H30.2139C29.5731 6.50685 27.4889 7.91666 25.0003 7.91666C22.5118 7.91666 20.4276 6.50685 19.7868 4.58333H17.0837V15C17.0837 15.6904 16.524 16.25 15.8337 16.25C15.1433 16.25 14.5837 15.6904 14.5837 15V3.33333Z" fill="white"/>
<path fill-rule="evenodd" clip-rule="evenodd" d="M5.41699 11.6667C5.41699 10.9763 5.97664 10.4167 6.66699 10.4167H11.667C12.3573 10.4167 12.917 10.9763 12.917 11.6667C12.917 12.4691 13.8363 13.75 15.8337 13.75C17.831 13.75 18.7503 12.4691 18.7503 11.6667C18.7503 10.9763 19.31 10.4167 20.0003 10.4167H25.0003C25.6907 10.4167 26.2503 10.9763 26.2503 11.6667V36.6667C26.2503 37.357 25.6907 37.9167 25.0003 37.9167H20.0003C19.31 37.9167 18.7503 37.357 18.7503 36.6667C18.7503 35.7863 17.8562 34.5833 15.8337 34.5833C13.8112 34.5833 12.917 35.7863 12.917 36.6667C12.917 37.357 12.3573 37.9167 11.667 37.9167H6.66699C5.97664 37.9167 5.41699 37.357 5.41699 36.6667V11.6667ZM7.91699 12.9167V35.4167H10.6082C11.2378 33.4295 13.3482 32.0833 15.8337 32.0833C18.3191 32.0833 20.4295 33.4295 21.0591 35.4167H23.7503V12.9167H21.0472C20.4064 14.8402 18.3222 16.25 15.8337 16.25C13.3451 16.25 11.2609 14.8402 10.6201 12.9167H7.91699Z" fill="white"/>
<path d="M11.667 21.6667C12.5875 21.6667 13.3337 20.9205 13.3337 20C13.3337 19.0795 12.5875 18.3333 11.667 18.3333C10.7465 18.3333 10.0003 19.0795 10.0003 20C10.0003 20.9205 10.7465 21.6667 11.667 21.6667Z" fill="white"/>
<path d="M15.8337 21.6667C16.7541 21.6667 17.5003 20.9205 17.5003 20C17.5003 19.0795 16.7541 18.3333 15.8337 18.3333C14.9132 18.3333 14.167 19.0795 14.167 20C14.167 20.9205 14.9132 21.6667 15.8337 21.6667Z" fill="white"/>
<path d="M20.0003 21.6667C20.9208 21.6667 21.667 20.9205 21.667 20C21.667 19.0795 20.9208 18.3333 20.0003 18.3333C19.0799 18.3333 18.3337 19.0795 18.3337 20C18.3337 20.9205 19.0799 21.6667 20.0003 21.6667Z" fill="white"/>
<g clip-path="url(#clip0_50_2966)">
<path d="M162.561 8.0082H120.625C120.519 8.00789 120.414 8.02025 120.31 8.0451C119.956 8.12234 119.637 8.33859 119.408 8.65662C119.178 8.97465 119.052 9.37455 119.052 9.78749V30.192C119.052 30.6639 119.215 31.1165 119.506 31.4502C119.797 31.7838 120.192 31.9713 120.603 31.9713C120.681 31.9694 120.759 31.9612 120.836 31.9467H136.924C137.128 31.9467 137.33 31.9006 137.519 31.811C137.707 31.7213 137.879 31.59 138.023 31.4244C138.168 31.2588 138.282 31.0622 138.36 30.8458C138.439 30.6294 138.479 30.3975 138.479 30.1633C138.479 29.6899 138.315 29.2359 138.024 28.9008C137.732 28.5657 137.336 28.3769 136.924 28.3758H122.162V21.7875H136.938C137.338 21.7655 137.715 21.5678 137.992 21.2354C138.268 20.9029 138.422 20.4613 138.422 20.0021C138.422 19.5428 138.268 19.1012 137.992 18.7687C137.715 18.4363 137.338 18.2386 136.938 18.2166H122.162V11.575H147.52V30.2125C147.521 30.6804 147.684 31.1288 147.973 31.4593C148.262 31.7898 148.653 31.9754 149.061 31.9754H149.093C149.501 31.9754 149.893 31.7898 150.182 31.4593C150.47 31.1288 150.633 30.6804 150.634 30.2125V11.575H162.561C162.973 11.575 163.369 11.3871 163.66 11.0526C163.952 10.7182 164.116 10.2646 164.116 9.7916C164.116 9.31861 163.952 8.865 163.66 8.53055C163.369 8.1961 162.973 8.0082 162.561 8.0082Z" fill="white"/>
<path d="M184.036 28.3799H167.723C166.864 28.3799 166.168 29.1784 166.168 30.1633C166.168 31.1483 166.864 31.9467 167.723 31.9467H184.036C184.895 31.9467 185.591 31.1483 185.591 30.1633C185.591 29.1784 184.895 28.3799 184.036 28.3799Z" fill="white"/>
<path d="M184.037 18.2166H167.723C167.323 18.2386 166.946 18.4363 166.67 18.7687C166.393 19.1012 166.239 19.5428 166.239 20.002C166.239 20.4613 166.393 20.9029 166.67 21.2354C166.946 21.5678 167.323 21.7655 167.723 21.7875H184.037C184.437 21.7655 184.814 21.5678 185.09 21.2354C185.367 20.9029 185.521 20.4613 185.521 20.002C185.521 19.5428 185.367 19.1012 185.09 18.7687C184.814 18.4363 184.437 18.2386 184.037 18.2166Z" fill="white"/>
<path d="M184.036 8H167.723C167.311 8 166.915 8.1879 166.623 8.52235C166.332 8.8568 166.168 9.31041 166.168 9.7834C166.168 10.2564 166.332 10.71 166.623 11.0444C166.915 11.3789 167.311 11.5668 167.723 11.5668H184.036C184.241 11.5668 184.443 11.5207 184.631 11.431C184.82 11.3414 184.992 11.2101 185.136 11.0444C185.28 10.8788 185.395 10.6822 185.473 10.4659C185.551 10.2495 185.591 10.0176 185.591 9.7834C185.591 9.5492 185.551 9.31729 185.473 9.10092C185.395 8.88455 185.28 8.68795 185.136 8.52235C184.992 8.35674 184.82 8.22538 184.631 8.13576C184.443 8.04613 184.241 8 184.036 8Z" fill="white"/>
<path d="M65.8684 8.00819H49.5552C49.1427 8.00819 48.7472 8.19609 48.4555 8.53054C48.1639 8.86499 48 9.31861 48 9.79159C48 10.2646 48.1639 10.7182 48.4555 11.0526C48.7472 11.3871 49.1427 11.575 49.5552 11.575H56.1548V30.192C56.1548 30.6639 56.3183 31.1165 56.6093 31.4502C56.9002 31.7838 57.2949 31.9713 57.7064 31.9713C58.1179 31.9713 58.5126 31.7838 58.8035 31.4502C59.0945 31.1165 59.258 30.6639 59.258 30.192V11.575H65.8576C66.2701 11.575 66.6657 11.3871 66.9573 11.0526C67.249 10.7182 67.4128 10.2646 67.4128 9.79159C67.4128 9.31861 67.249 8.86499 66.9573 8.53054C66.6657 8.19609 66.2701 8.00819 65.8576 8.00819H65.8684Z" fill="white"/>
<path d="M70.8195 8.00819H70.8123C69.9554 8.00819 69.2607 8.80481 69.2607 9.78749V30.1797C69.2607 31.1624 69.9554 31.959 70.8123 31.959H70.8195C71.6764 31.959 72.3711 31.1624 72.3711 30.1797V9.78749C72.3711 8.80481 71.6764 8.00819 70.8195 8.00819Z" fill="white"/>
<path d="M98.3481 8.00819C97.9357 8.00819 97.5401 8.19609 97.2485 8.53054C96.9568 8.86499 96.793 9.31861 96.793 9.79159V30.192C96.8121 30.6507 96.9845 31.0834 97.2744 31.4003C97.5643 31.7171 97.9494 31.8939 98.3499 31.8939C98.7504 31.8939 99.1355 31.7171 99.4254 31.4003C99.7153 31.0834 99.8877 30.6507 99.9069 30.192V9.79159C99.9059 9.31823 99.7413 8.86463 99.4491 8.53029C99.1569 8.19596 98.7609 8.00819 98.3481 8.00819Z" fill="white"/>
<path d="M115.373 8.00819C114.946 8.00819 114.537 8.20257 114.235 8.54855C113.933 8.89454 113.764 9.36379 113.764 9.85309V12.3129C113.764 13.9001 113.214 15.4224 112.236 16.5454C111.258 17.6685 109.932 18.3005 108.548 18.3027H102.642C102.271 18.3026 101.911 18.4495 101.624 18.7184C101.337 18.9874 101.139 19.3619 101.065 19.7786C101.042 19.9026 101.03 20.029 101.029 20.1558C101.029 20.6451 101.199 21.1143 101.501 21.4603C101.802 21.8063 102.211 22.0007 102.638 22.0007H108.544C109.927 22.0018 111.253 22.6323 112.231 23.7538C113.209 24.8754 113.759 26.3962 113.76 27.9822V30.11C113.76 30.5993 113.93 31.0686 114.231 31.4145C114.533 31.7605 114.942 31.9549 115.369 31.9549C115.796 31.9549 116.205 31.7605 116.507 31.4145C116.808 31.0686 116.978 30.5993 116.978 30.11V27.9822C116.977 26.4533 116.66 24.9463 116.053 23.585C115.446 22.2238 114.566 21.0472 113.485 20.1517C114.567 19.2571 115.448 18.0808 116.056 16.7194C116.664 15.358 116.981 13.8506 116.981 12.3211V9.86129C116.982 9.61847 116.941 9.37793 116.86 9.15339C116.779 8.92886 116.661 8.72473 116.512 8.55265C116.362 8.38057 116.185 8.24392 115.989 8.15051C115.794 8.05709 115.584 8.00873 115.373 8.00819Z" fill="white"/>
<path d="M205.225 20.5945C206.071 19.9824 206.769 19.1355 207.254 18.1323C207.739 17.1291 207.995 16.0018 208 14.8548C207.979 13.0157 207.323 11.2611 206.176 9.97605C205.028 8.69096 203.483 7.9803 201.879 8H189.195C188.768 8 188.359 8.19438 188.057 8.54036C187.755 8.88634 187.586 9.3556 187.586 9.84489C187.586 10.3342 187.755 10.8035 188.057 11.1494C188.359 11.4954 188.768 11.6898 189.195 11.6898H201.879C202.256 11.6679 202.632 11.734 202.986 11.8842C203.34 12.0344 203.663 12.2655 203.936 12.5635C204.21 12.8614 204.427 13.22 204.576 13.6174C204.725 14.0149 204.802 14.4428 204.802 14.8753C204.802 15.3078 204.725 15.7357 204.576 16.1332C204.427 16.5306 204.21 16.8892 203.936 17.1872C203.663 17.4851 203.34 17.7162 202.986 17.8664C202.632 18.0166 202.256 18.0827 201.879 18.0608H189.195C188.768 18.0608 188.359 18.2552 188.057 18.6012C187.755 18.9472 187.586 19.4164 187.586 19.9057C187.586 20.395 187.755 20.8643 188.057 21.2102C188.359 21.5562 188.768 21.7506 189.195 21.7506H193.331C193.433 21.7719 193.535 21.7828 193.639 21.7834H199.545C200.923 21.7855 202.244 22.4119 203.221 23.5261C204.198 24.6403 204.751 26.1521 204.761 27.7322V30.1141C204.761 30.6034 204.93 31.0727 205.232 31.4186C205.534 31.7646 205.943 31.959 206.37 31.959C206.796 31.959 207.205 31.7646 207.507 31.4186C207.809 31.0727 207.978 30.6034 207.978 30.1141V27.7322C207.979 26.388 207.734 25.0586 207.26 23.8293C206.786 22.6001 206.093 21.4982 205.225 20.5945Z" fill="white"/>
<path d="M92.7857 11.6693C93.2095 11.6693 93.616 11.4762 93.9157 11.1325C94.2154 10.7889 94.3838 10.3227 94.3838 9.8367C94.3838 9.35066 94.2154 8.88454 93.9157 8.54086C93.616 8.19718 93.2095 8.0041 92.7857 8.0041H78.1492C77.2959 8.0041 76.4775 8.39285 75.8741 9.08481C75.2706 9.77678 74.9316 10.7153 74.9316 11.6939V28.3184C74.9316 29.297 75.2706 30.2355 75.8741 30.9275C76.4775 31.6195 77.2959 32.0082 78.1492 32.0082H92.7857C93.2095 32.0082 93.616 31.8151 93.9157 31.4715C94.2154 31.1278 94.3838 30.6616 94.3838 30.1756C94.3838 29.6896 94.2154 29.2235 93.9157 28.8798C93.616 28.5361 93.2095 28.343 92.7857 28.343L78.1278 28.3225L78.1457 11.6775L92.7857 11.6693Z" fill="white"/>
</g>
<defs>
<clipPath id="clip0_50_2966">
<rect width="160" height="24" fill="white" transform="translate(48 8)"/>
</clipPath>
</defs>
</svg>
