<svg width="38" height="34" viewBox="0 0 38 34" fill="none" xmlns="http://www.w3.org/2000/svg">
<path d="M0.368028 1.46981C0.573753 1.03057 1.01499 0.75 1.50002 0.75H4.41668C4.99027 0.75 5.49025 1.14037 5.62936 1.69683L6.64265 5.75H37.2677L32.476 24.9167H8.85738L4.52335 7.58057L0.539739 2.80023C0.229235 2.42763 0.162304 1.90904 0.368028 1.46981ZM7.26765 8.25L10.8093 22.4167H30.524L34.0657 8.25H7.26765ZM9.83335 28.25C9.14299 28.25 8.58335 28.8096 8.58335 29.5C8.58335 30.1904 9.14299 30.75 9.83335 30.75C10.5237 30.75 11.0833 30.1904 11.0833 29.5C11.0833 28.8096 10.5237 28.25 9.83335 28.25ZM6.08335 29.5C6.08335 27.4289 7.76228 25.75 9.83335 25.75C11.9044 25.75 13.5834 27.4289 13.5834 29.5C13.5834 31.5711 11.9044 33.25 9.83335 33.25C7.76228 33.25 6.08335 31.5711 6.08335 29.5ZM31.5 28.25C30.8097 28.25 30.25 28.8096 30.25 29.5C30.25 30.1904 30.8097 30.75 31.5 30.75C32.1904 30.75 32.75 30.1904 32.75 29.5C32.75 28.8096 32.1904 28.25 31.5 28.25ZM27.75 29.5C27.75 27.4289 29.4289 25.75 31.5 25.75C33.5711 25.75 35.25 27.4289 35.25 29.5C35.25 31.5711 33.5711 33.25 31.5 33.25C29.4289 33.25 27.75 31.5711 27.75 29.5Z" fill="white"/>
</svg>
