<svg width="22" height="21" viewBox="0 0 22 21" fill="none" xmlns="http://www.w3.org/2000/svg">
<path d="M11 5.25C10.3878 5.25 9.78515 5.3318 9.19659 5.47791C8.79458 5.5777 8.38778 5.33271 8.28798 4.9307C8.18819 4.52869 8.43318 4.12189 8.83519 4.02209C9.52923 3.8498 10.2535 3.75 11 3.75C14.0225 3.75 16.6917 5.38254 18.5497 6.92257C19.4893 7.70141 20.2478 8.47852 20.7717 9.0609C21.0341 9.35257 21.2388 9.59667 21.3791 9.76944C21.4492 9.85586 21.5034 9.92453 21.5406 9.9725C21.5593 9.99648 21.5737 10.0153 21.5838 10.0286L21.5957 10.0443L21.5992 10.049L21.6004 10.0505C21.6004 10.0505 21.6011 10.0515 21 10.5C21.6011 10.9485 21.6009 10.9487 21.6009 10.9487L21.5992 10.951L21.5957 10.9557L21.5838 10.9714C21.5737 10.9847 21.5593 11.0035 21.5406 11.0275C21.5034 11.0755 21.4492 11.1441 21.3791 11.2306C21.2388 11.4033 21.0341 11.6474 20.7717 11.9391C20.2478 12.5215 19.4893 13.2986 18.5497 14.0774C18.2308 14.3418 17.758 14.2975 17.4936 13.9786C17.2293 13.6597 17.2735 13.1869 17.5924 12.9226C18.4625 12.2014 19.1684 11.4785 19.6566 10.9359C19.804 10.772 19.9312 10.625 20.0366 10.5C19.9312 10.375 19.804 10.228 19.6566 10.0641C19.1684 9.52148 18.4625 8.79859 17.5924 8.07743C15.8311 6.61746 13.5003 5.25 11 5.25ZM21 10.5L21.6009 10.9487C21.7995 10.6827 21.7996 10.3175 21.6011 10.0515L21 10.5ZM3.4503 6.92258C3.74433 6.67885 4.17455 6.695 4.44949 6.96009L13.5206 15.7061C13.7168 15.8954 13.7949 16.1762 13.7246 16.4396C13.6542 16.703 13.4465 16.9075 13.182 16.9736C12.4827 17.1486 11.7526 17.25 11 17.25C7.97746 17.25 5.30824 15.6175 3.4503 14.0774C2.51069 13.2986 1.75217 12.5215 1.22826 11.9391C0.96587 11.6474 0.761186 11.4033 0.620909 11.2306C0.550743 11.1441 0.496609 11.0755 0.459345 11.0275C0.440711 11.0035 0.426287 10.9847 0.416179 10.9714L0.404263 10.9557L0.400755 10.951L0.399618 10.9495C0.399618 10.9495 0.398893 10.9485 0.99999 10.5C0.398893 10.0515 0.399036 10.0513 0.399036 10.0513L0.400755 10.049L0.404263 10.0443L0.416179 10.0286C0.426287 10.0153 0.440711 9.99648 0.459346 9.97249C0.49661 9.92453 0.550744 9.85586 0.62091 9.76944C0.761187 9.59667 0.96587 9.35257 1.22826 9.0609C1.75217 8.47852 2.51069 7.70141 3.4503 6.92258ZM0.99999 10.5L0.399036 10.0513C0.200498 10.3173 0.200355 10.6825 0.398893 10.9485L0.99999 10.5ZM1.96339 10.5C2.06878 10.625 2.19595 10.772 2.34342 10.9359C2.83157 11.4785 3.53751 12.2014 4.40754 12.9226C6.16889 14.3825 8.49966 15.75 11 15.75C11.1316 15.75 11.2627 15.7462 11.3934 15.7388L3.89998 8.51393C3.26072 9.08377 2.73279 9.63128 2.34342 10.0641C2.19595 10.228 2.06878 10.375 1.96339 10.5Z" fill="#222222"/>
<path d="M9.664 8.25789C9.96928 8.53786 9.98981 9.01229 9.70984 9.31756C9.42365 9.62963 9.24999 10.0437 9.24999 10.5C9.24999 11.4665 10.0335 12.25 11 12.25C11.4772 12.25 11.9085 12.06 12.225 11.7498C12.5208 11.4598 12.9956 11.4645 13.2856 11.7603C13.5755 12.0561 13.5708 12.531 13.275 12.8209C12.6896 13.3948 11.8855 13.75 11 13.75C9.20508 13.75 7.74999 12.2949 7.74999 10.5C7.74999 9.65372 8.07443 8.88156 8.60433 8.30374C8.8843 7.99846 9.35873 7.97793 9.664 8.25789Z" fill="#222222"/>
<path d="M1.46966 0.96967C1.76255 0.676777 2.23743 0.676777 2.53032 0.96967L20.5303 18.9697C20.8232 19.2626 20.8232 19.7374 20.5303 20.0303C20.2374 20.3232 19.7626 20.3232 19.4697 20.0303L1.46966 2.03033C1.17677 1.73744 1.17677 1.26256 1.46966 0.96967Z" fill="#222222"/>
</svg>
