<svg width="22" height="22" viewBox="0 0 22 22" fill="none" xmlns="http://www.w3.org/2000/svg">
<path d="M0.25 11C0.25 5.06294 5.06294 0.25 11 0.25C16.9371 0.25 21.75 5.06294 21.75 11C21.75 16.9371 16.9371 21.75 11 21.75C5.06294 21.75 0.25 16.9371 0.25 11ZM11 1.75C5.89136 1.75 1.75 5.89136 1.75 11C1.75 16.1086 5.89136 20.25 11 20.25C16.1086 20.25 20.25 16.1086 20.25 11C20.25 5.89136 16.1086 1.75 11 1.75Z" fill="#B6B6B6"/>
<path d="M13.0303 5.96967C13.3232 6.26256 13.3232 6.73744 13.0303 7.03033L9.06066 11L13.0303 14.9697C13.3232 15.2626 13.3232 15.7374 13.0303 16.0303C12.7374 16.3232 12.2626 16.3232 11.9697 16.0303L7.46967 11.5303C7.17678 11.2374 7.17678 10.7626 7.46967 10.4697L11.9697 5.96967C12.2626 5.67678 12.7374 5.67678 13.0303 5.96967Z" fill="#B6B6B6"/>
</svg>
