<svg width="22" height="20" viewBox="0 0 22 20" fill="none" xmlns="http://www.w3.org/2000/svg">
<path fill-rule="evenodd" clip-rule="evenodd" d="M0.595785 0.325281C0.811228 0.187434 1.08207 0.168881 1.31429 0.276063L7.51129 3.13622L14.2046 0.267674C14.3998 0.183991 14.6214 0.18704 14.8143 0.276063L21.3143 3.27606C21.5799 3.39865 21.75 3.66449 21.75 3.95703V18.957C21.75 19.2128 21.6197 19.4509 21.4042 19.5888C21.1888 19.7266 20.9179 19.7452 20.6857 19.638L14.4887 16.7778L7.79544 19.6464C7.60018 19.7301 7.37859 19.727 7.18571 19.638L0.685706 16.638C0.420094 16.5154 0.25 16.2496 0.25 15.957V0.957033C0.25 0.701264 0.380342 0.463129 0.595785 0.325281ZM14.4887 1.77785L7.79544 4.64639C7.60018 4.73007 7.37859 4.72703 7.18571 4.638L1.75 2.12921V15.4772L7.51129 18.1362L14.2046 15.2677C14.3998 15.184 14.6214 15.187 14.8143 15.2761L20.25 17.7849V4.43691L14.4887 1.77785Z" fill="#222222"/>
<path fill-rule="evenodd" clip-rule="evenodd" d="M14.5 0.207031C14.9142 0.207031 15.25 0.542818 15.25 0.957031V15.957C15.25 16.3712 14.9142 16.707 14.5 16.707C14.0858 16.707 13.75 16.3712 13.75 15.957V0.957031C13.75 0.542818 14.0858 0.207031 14.5 0.207031Z" fill="#222222"/>
<path fill-rule="evenodd" clip-rule="evenodd" d="M7.5 3.20703C7.91421 3.20703 8.25 3.54282 8.25 3.95703V18.957C8.25 19.3712 7.91421 19.707 7.5 19.707C7.08579 19.707 6.75 19.3712 6.75 18.957V3.95703C6.75 3.54282 7.08579 3.20703 7.5 3.20703Z" fill="#222222"/>
<path fill-rule="evenodd" clip-rule="evenodd" d="M14.2046 0.267674C14.3998 0.183991 14.6214 0.18704 14.8143 0.276063L18.0645 1.77606C18.4406 1.94964 18.6047 2.39524 18.4312 2.77132C18.2576 3.14741 17.812 3.31158 17.4359 3.138L14.4887 1.77785L7.79544 4.64639C7.60018 4.73007 7.37859 4.72703 7.18571 4.638L3.93589 3.138C3.5598 2.96442 3.39563 2.51883 3.56921 2.14274C3.74279 1.76665 4.18839 1.60248 4.56447 1.77606L7.51129 3.13622L14.2046 0.267674Z" fill="#222222"/>
<path fill-rule="evenodd" clip-rule="evenodd" d="M14.2046 15.2677C14.3998 15.184 14.6214 15.187 14.8143 15.2761L18.0645 16.7761C18.4406 16.9496 18.6047 17.3952 18.4312 17.7713C18.2576 18.1474 17.812 18.3116 17.4359 18.138L14.4887 16.7778L7.79544 19.6464C7.60018 19.7301 7.37859 19.727 7.18571 19.638L3.93589 18.138C3.5598 17.9644 3.39563 17.5188 3.56921 17.1427C3.74279 16.7666 4.18839 16.6025 4.56447 16.7761L7.51129 18.1362L14.2046 15.2677Z" fill="#222222"/>
</svg>
