<svg width="22" height="20" viewBox="0 0 22 20" fill="none" xmlns="http://www.w3.org/2000/svg">
<path fill-rule="evenodd" clip-rule="evenodd" d="M0.595785 0.36825C0.811228 0.230403 1.08207 0.21185 1.31429 0.319032L7.51129 3.17919L14.2046 0.310643C14.3998 0.22696 14.6214 0.230009 14.8143 0.319032L21.3143 3.31903C21.5799 3.44162 21.75 3.70746 21.75 4V19C21.75 19.2558 21.6197 19.4939 21.4042 19.6318C21.1888 19.7696 20.9179 19.7882 20.6857 19.681L14.4887 16.8208L7.79544 19.6894C7.60018 19.773 7.37859 19.77 7.18571 19.681L0.685706 16.681C0.420094 16.5584 0.25 16.2925 0.25 16V1C0.25 0.744233 0.380342 0.506097 0.595785 0.36825ZM14.4887 1.82082L7.79544 4.68936C7.60018 4.77304 7.37859 4.76999 7.18571 4.68097L1.75 2.17218V15.5201L7.51129 18.1792L14.2046 15.3106C14.3998 15.227 14.6214 15.23 14.8143 15.319L20.25 17.8278V4.47988L14.4887 1.82082Z" fill="#222222"/>
<path fill-rule="evenodd" clip-rule="evenodd" d="M14.5 0.25C14.9142 0.25 15.25 0.585786 15.25 1V16C15.25 16.4142 14.9142 16.75 14.5 16.75C14.0858 16.75 13.75 16.4142 13.75 16V1C13.75 0.585786 14.0858 0.25 14.5 0.25Z" fill="#222222"/>
<path fill-rule="evenodd" clip-rule="evenodd" d="M7.5 3.25C7.91421 3.25 8.25 3.58579 8.25 4V19C8.25 19.4142 7.91421 19.75 7.5 19.75C7.08579 19.75 6.75 19.4142 6.75 19V4C6.75 3.58579 7.08579 3.25 7.5 3.25Z" fill="#222222"/>
<path fill-rule="evenodd" clip-rule="evenodd" d="M14.2046 0.310643C14.3998 0.22696 14.6214 0.230009 14.8143 0.319032L18.0645 1.81903C18.4406 1.99261 18.6047 2.4382 18.4312 2.81429C18.2576 3.19038 17.812 3.35455 17.4359 3.18097L14.4887 1.82082L7.79544 4.68936C7.60018 4.77304 7.37859 4.76999 7.18571 4.68097L3.93589 3.18097C3.5598 3.00739 3.39563 2.5618 3.56921 2.18571C3.74279 1.80962 4.18839 1.64545 4.56447 1.81903L7.51129 3.17919L14.2046 0.310643Z" fill="#222222"/>
<path fill-rule="evenodd" clip-rule="evenodd" d="M14.2046 15.3106C14.3998 15.227 14.6214 15.23 14.8143 15.319L18.0645 16.819C18.4406 16.9926 18.6047 17.4382 18.4312 17.8143C18.2576 18.1904 17.812 18.3545 17.4359 18.181L14.4887 16.8208L7.79544 19.6894C7.60018 19.773 7.37859 19.77 7.18571 19.681L3.93589 18.181C3.5598 18.0074 3.39563 17.5618 3.56921 17.1857C3.74279 16.8096 4.18839 16.6455 4.56447 16.819L7.51129 18.1792L14.2046 15.3106Z" fill="#222222"/>
</svg>
