<svg width="18" height="19" viewBox="0 0 18 19" fill="none" xmlns="http://www.w3.org/2000/svg">
<path d="M2.33333 9.29169C2.21827 9.29169 2.125 9.38496 2.125 9.50002V17C2.125 17.1151 2.21827 17.2084 2.33333 17.2084H15.6667C15.7817 17.2084 15.875 17.1151 15.875 17V9.50002C15.875 9.38496 15.7817 9.29169 15.6667 9.29169H2.33333ZM0.875 9.50002C0.875 8.69461 1.52792 8.04169 2.33333 8.04169H15.6667C16.4721 8.04169 17.125 8.69461 17.125 9.50002V17C17.125 17.8054 16.4721 18.4584 15.6667 18.4584H2.33333C1.52792 18.4584 0.875 17.8054 0.875 17V9.50002Z" fill="#242B35"/>
<path d="M9 1.79169C7.04401 1.79169 5.45833 3.37735 5.45833 5.33335V8.66669C5.45833 9.01187 5.17851 9.29169 4.83333 9.29169C4.48816 9.29169 4.20833 9.01187 4.20833 8.66669V5.33335C4.20833 2.68699 6.35366 0.541687 9 0.541687C11.6463 0.541687 13.7917 2.68699 13.7917 5.33335V8.66669C13.7917 9.01187 13.5118 9.29169 13.1667 9.29169C12.8215 9.29169 12.5417 9.01187 12.5417 8.66669V5.33335C12.5417 3.37735 10.956 1.79169 9 1.79169Z" fill="#242B35"/>
<path d="M9 11.375C9.34518 11.375 9.625 11.6548 9.625 12V14.5C9.625 14.8452 9.34518 15.125 9 15.125C8.65482 15.125 8.375 14.8452 8.375 14.5V12C8.375 11.6548 8.65482 11.375 9 11.375Z" fill="#242B35"/>
</svg>
