<svg width="18" height="19" viewBox="0 0 18 19" fill="none" xmlns="http://www.w3.org/2000/svg">
<path d="M2.33333 9.29163C2.21827 9.29163 2.125 9.3849 2.125 9.49996V17C2.125 17.115 2.21827 17.2083 2.33333 17.2083H15.6667C15.7817 17.2083 15.875 17.115 15.875 17V9.49996C15.875 9.3849 15.7817 9.29163 15.6667 9.29163H2.33333ZM0.875 9.49996C0.875 8.69454 1.52792 8.04163 2.33333 8.04163H15.6667C16.4721 8.04163 17.125 8.69454 17.125 9.49996V17C17.125 17.8054 16.4721 18.4583 15.6667 18.4583H2.33333C1.52792 18.4583 0.875 17.8054 0.875 17V9.49996Z" fill="#242B35"/>
<path d="M9 1.79163C7.04401 1.79163 5.45833 3.37729 5.45833 5.33329V8.66663C5.45833 9.0118 5.17851 9.29163 4.83333 9.29163C4.48816 9.29163 4.20833 9.0118 4.20833 8.66663V5.33329C4.20833 2.68693 6.35366 0.541626 9 0.541626C11.6463 0.541626 13.7917 2.68693 13.7917 5.33329V8.66663C13.7917 9.0118 13.5118 9.29163 13.1667 9.29163C12.8215 9.29163 12.5417 9.0118 12.5417 8.66663V5.33329C12.5417 3.37729 10.956 1.79163 9 1.79163Z" fill="#242B35"/>
<path d="M9 11.375C9.34518 11.375 9.625 11.6548 9.625 12V14.5C9.625 14.8451 9.34518 15.125 9 15.125C8.65482 15.125 8.375 14.8451 8.375 14.5V12C8.375 11.6548 8.65482 11.375 9 11.375Z" fill="#242B35"/>
</svg>
