<svg width="24" height="24" viewBox="0 0 24 24" fill="none" xmlns="http://www.w3.org/2000/svg">
<path d="M20.8265 6.00488C20.8024 6.14003 20.7749 6.2782 20.744 6.42014C19.6808 11.2152 16.0435 12.8717 11.398 12.8717H9.0327C8.46458 12.8717 7.98585 13.2341 7.89733 13.7263L6.68632 20.4731L6.34339 22.3855C6.2858 22.7086 6.56943 23.0001 6.94072 23.0001H11.1358C11.6326 23.0001 12.0546 22.683 12.1328 22.2526L12.1741 22.0654L12.964 17.6622L13.0147 17.4206C13.092 16.9887 13.5149 16.6716 14.0117 16.6716H14.6391C18.7036 16.6716 21.8854 15.222 22.8153 11.0272C23.2038 9.27481 23.0027 7.81161 21.9747 6.78254C21.6636 6.47223 21.2777 6.21477 20.8265 6.00488Z" fill="#179BD7"/>
<path d="M19.6959 6.40151C19.5334 6.35998 19.3658 6.32223 19.194 6.28826C19.0212 6.25504 18.8441 6.22559 18.6619 6.19992C18.0242 6.10932 17.3254 6.06628 16.5768 6.06628H10.2579C10.1024 6.06628 9.95455 6.09724 9.82219 6.15311C9.53083 6.27618 9.31424 6.51853 9.26181 6.81525L7.91758 14.2943L7.87891 14.5125C7.96743 14.0203 8.44616 13.6579 9.01428 13.6579H11.3796C16.0251 13.6579 19.6624 12.0006 20.7255 7.20634C20.7573 7.0644 20.784 6.92624 20.8081 6.79109C20.539 6.66576 20.2477 6.55855 19.934 6.46719C19.8566 6.44454 19.7767 6.42265 19.6959 6.40151Z" fill="#222D65"/>
<path d="M9.26303 6.81279C9.31546 6.51607 9.53204 6.27371 9.82341 6.1514C9.95663 6.09553 10.1036 6.06458 10.2592 6.06458H16.5781C17.3267 6.06458 18.0254 6.10761 18.6632 6.19821C18.8454 6.22388 19.0224 6.25333 19.1952 6.28655C19.3671 6.32053 19.5347 6.35828 19.6971 6.3998C19.7779 6.42094 19.8578 6.44284 19.936 6.46473C20.2498 6.55609 20.5411 6.66405 20.8101 6.78863C21.1264 5.01663 20.8076 3.81013 19.7169 2.71764C18.5145 1.51491 16.3443 1 13.5673 1H5.50538C4.93813 1 4.45424 1.3624 4.36657 1.85542L1.00859 20.5531C0.942405 20.9231 1.26729 21.2568 1.69187 21.2568H6.66912L7.9188 14.2919L9.26303 6.81279Z" fill="#253B80"/>
</svg>
