<svg width="15" height="15" viewBox="0 0 15 15" fill="none" xmlns="http://www.w3.org/2000/svg">
<path fill-rule="evenodd" clip-rule="evenodd" d="M10.7927 0.947228C10.988 0.751966 11.3046 0.751966 11.4998 0.947227L14.3283 3.77565C14.422 3.86942 14.4747 3.99659 14.4747 4.1292C14.4747 4.26181 14.422 4.38899 14.3283 4.48275L3.95737 14.8537C3.8636 14.9474 3.73642 15.0001 3.60381 15.0001L0.775466 15C0.499334 15 0.275486 14.7762 0.275477 14.5001L0.275391 11.6717C0.275387 11.5391 0.328065 11.4119 0.421837 11.3181L10.7927 0.947228ZM11.1463 2.00789L1.2754 11.8788L1.27546 14L3.39672 14.0001L13.2676 4.1292L11.1463 2.00789Z" fill="white"/>
<path fill-rule="evenodd" clip-rule="evenodd" d="M7.96416 3.7756C8.15942 3.58033 8.476 3.58033 8.67126 3.7756L11.4997 6.60403C11.695 6.79929 11.695 7.11587 11.4997 7.31114C11.3044 7.5064 10.9879 7.5064 10.7926 7.31114L7.96416 4.4827C7.76889 4.28744 7.76889 3.97086 7.96416 3.7756Z" fill="white"/>
</svg>
