<svg width="22" height="22" viewBox="0 0 22 22" fill="none" xmlns="http://www.w3.org/2000/svg">
<path d="M0.25 11C0.25 5.06294 5.06294 0.25 11 0.25C16.9371 0.25 21.75 5.06294 21.75 11C21.75 16.9371 16.9371 21.75 11 21.75C5.06294 21.75 0.25 16.9371 0.25 11ZM11 1.75C5.89136 1.75 1.75 5.89136 1.75 11C1.75 16.1086 5.89136 20.25 11 20.25C16.1086 20.25 20.25 16.1086 20.25 11C20.25 5.89136 16.1086 1.75 11 1.75Z" fill="#505050"/>
<path d="M8.96967 5.96967C9.26256 5.67678 9.73744 5.67678 10.0303 5.96967L14.5303 10.4697C14.8232 10.7626 14.8232 11.2374 14.5303 11.5303L10.0303 16.0303C9.73744 16.3232 9.26256 16.3232 8.96967 16.0303C8.67678 15.7374 8.67678 15.2626 8.96967 14.9697L12.9393 11L8.96967 7.03033C8.67678 6.73744 8.67678 6.26256 8.96967 5.96967Z" fill="#505050"/>
</svg>
