<svg width="12" height="12" viewBox="0 0 12 12" fill="none" xmlns="http://www.w3.org/2000/svg">
<path d="M11.0303 0.96967C11.3232 1.26256 11.3232 1.73744 11.0303 2.03033L2.53033 10.5303C2.23744 10.8232 1.76256 10.8232 1.46967 10.5303C1.17678 10.2374 1.17678 9.76256 1.46967 9.46967L9.96967 0.96967C10.2626 0.676777 10.7374 0.676777 11.0303 0.96967Z" fill="#222222"/>
<path d="M0.75 1.5C0.75 1.08579 1.08579 0.75 1.5 0.75H10.5C10.9142 0.75 11.25 1.08579 11.25 1.5V10.5C11.25 10.9142 10.9142 11.25 10.5 11.25C10.0858 11.25 9.75 10.9142 9.75 10.5V2.25H1.5C1.08579 2.25 0.75 1.91421 0.75 1.5Z" fill="#222222"/>
</svg>
