<svg width="9" height="10" viewBox="0 0 9 10" fill="none" xmlns="http://www.w3.org/2000/svg">
<path d="M0 4.9598C0 4.68366 0.223858 4.4598 0.5 4.4598H8.5C8.77614 4.4598 9 4.68366 9 4.9598C9 5.23594 8.77614 5.4598 8.5 5.4598H0.5C0.223858 5.4598 0 5.23594 0 4.9598Z" fill="#3337BF"/>
<path d="M4.14645 0.603478C4.34171 0.408216 4.65829 0.408216 4.85355 0.603478L8.85355 4.60348C9.04882 4.79874 9.04882 5.11532 8.85355 5.31059L4.85355 9.31059C4.65829 9.50585 4.34171 9.50585 4.14645 9.31059C3.95118 9.11532 3.95118 8.79874 4.14645 8.60348L7.79289 4.95703L4.14645 1.31058C3.95118 1.11532 3.95118 0.79874 4.14645 0.603478Z" fill="#3337BF"/>
</svg>
