<svg width="20" height="22" viewBox="0 0 20 22" fill="none" xmlns="http://www.w3.org/2000/svg">
<path d="M10 1.75C8.20507 1.75 6.75 3.20507 6.75 5C6.75 6.79493 8.20507 8.25 10 8.25C11.7949 8.25 13.25 6.79493 13.25 5C13.25 3.20507 11.7949 1.75 10 1.75ZM5.25 5C5.25 2.37665 7.37665 0.25 10 0.25C12.6234 0.25 14.75 2.37665 14.75 5C14.75 7.62335 12.6234 9.75 10 9.75C7.37665 9.75 5.25 7.62335 5.25 5ZM0.25 21C0.25 15.6152 4.61524 11.25 10 11.25C15.3848 11.25 19.75 15.6152 19.75 21C19.75 21.4142 19.4142 21.75 19 21.75C18.5858 21.75 18.25 21.4142 18.25 21C18.25 16.7943 15.1029 13.3236 11.0353 12.8143L12.7168 18.2794C12.7898 18.5167 12.7407 18.7747 12.5857 18.9685L10.5857 21.4685C10.4433 21.6464 10.2278 21.75 10 21.75C9.77217 21.75 9.55669 21.6464 9.41436 21.4685L7.41436 18.9685C7.25929 18.7747 7.21017 18.5167 7.28317 18.2794L8.96475 12.8143C4.89706 13.3236 1.75 16.7943 1.75 21C1.75 21.4142 1.41421 21.75 1 21.75C0.585786 21.75 0.25 21.4142 0.25 21ZM10 19.7994L11.1665 18.3413L10 14.5503L8.83353 18.3413L10 19.7994Z" fill="#222222"/>
</svg>
