<svg width="16" height="14" viewBox="0 0 16 14" fill="none" xmlns="http://www.w3.org/2000/svg">
<path fill-rule="evenodd" clip-rule="evenodd" d="M7.99794 0.166506C8.18832 0.166016 8.36246 0.273687 8.4471 0.444222L10.3949 4.36874L14.7385 5.0021C14.9266 5.02953 15.0828 5.16121 15.1417 5.34192C15.2006 5.52263 15.152 5.72111 15.0162 5.85409L11.857 8.94804L12.6074 13.2472C12.6402 13.4355 12.5629 13.626 12.4082 13.7381C12.2534 13.8502 12.0483 13.8643 11.8796 13.7744L7.99925 11.7062L4.11971 13.7744C3.95097 13.8643 3.7457 13.8502 3.59091 13.7379C3.43613 13.6256 3.35893 13.4349 3.39204 13.2466L4.14787 8.94803L0.983488 5.8544C0.847474 5.72142 0.798691 5.52279 0.857631 5.34194C0.916571 5.16109 1.07302 5.02934 1.26127 5.00205L5.62865 4.36875L7.55021 0.446526C7.63397 0.275559 7.80756 0.166995 7.99794 0.166506ZM8.00213 1.79705L6.41057 5.04568C6.33791 5.19397 6.19673 5.29683 6.03331 5.32053L2.40591 5.84652L5.03552 8.41734C5.15354 8.53272 5.20702 8.69891 5.17843 8.86146L4.5546 12.4093L7.76401 10.6984C7.91101 10.62 8.08739 10.62 8.2344 10.6983L11.4462 12.4102L10.8267 8.86084C10.7984 8.69862 10.8517 8.53286 10.9694 8.41765L13.5953 5.84598L9.99131 5.32047C9.82895 5.2968 9.68853 5.19496 9.61558 5.04799L8.00213 1.79705Z" fill="#3337BF"/>
</svg>
