<svg width="24" height="24" viewBox="0 0 24 24" fill="none" xmlns="http://www.w3.org/2000/svg">
<rect width="24" height="24" rx="12" fill="#1877F2"/>
<path fill-rule="evenodd" clip-rule="evenodd" d="M6.68745 11.3049C9.3718 9.8937 11.1618 8.96333 12.0574 8.51383C14.6146 7.23039 15.146 7.00744 15.4923 7.00008C15.5685 6.99846 15.7388 7.02124 15.8491 7.12926C15.9423 7.22047 15.9679 7.34368 15.9802 7.43016C15.9924 7.51664 16.0077 7.71364 15.9956 7.86757C15.857 9.6245 15.2574 13.8881 14.9523 15.8559C14.8232 16.6885 14.5691 16.9677 14.323 16.995C13.7883 17.0544 13.3822 16.5686 12.8643 16.159C12.0539 15.5179 11.5961 15.1189 10.8094 14.4933C9.90027 13.7704 10.4896 13.3731 11.0077 12.7237C11.1433 12.5538 13.4994 9.96792 13.545 9.73334C13.5507 9.704 13.556 9.59464 13.5021 9.5369C13.4483 9.47915 13.3688 9.4989 13.3115 9.5146C13.2302 9.53687 11.9355 10.5695 9.42743 12.6124C9.05994 12.9169 8.72708 13.0652 8.42885 13.0574C8.10007 13.0489 7.46764 12.8331 6.99749 12.6487C6.42083 12.4225 5.96251 12.3029 6.00242 11.9188C6.02321 11.7187 6.25155 11.5141 6.68745 11.3049Z" fill="white"/>
</svg>
