<svg width="20" height="22" viewBox="0 0 20 22" fill="none" xmlns="http://www.w3.org/2000/svg">
<path fill-rule="evenodd" clip-rule="evenodd" d="M0.75 12.5C0.75 7.39139 4.89139 3.25 10 3.25C15.1086 3.25 19.25 7.39139 19.25 12.5C19.25 17.6086 15.1086 21.75 10 21.75C4.89139 21.75 0.75 17.6086 0.75 12.5ZM10 4.75C5.71981 4.75 2.25 8.21981 2.25 12.5C2.25 16.7802 5.71981 20.25 10 20.25C14.2802 20.25 17.75 16.7802 17.75 12.5C17.75 8.21981 14.2802 4.75 10 4.75Z" fill="#B70404"/>
<path fill-rule="evenodd" clip-rule="evenodd" d="M5.75 1C5.75 0.585786 6.08579 0.25 6.5 0.25H13.5C13.9142 0.25 14.25 0.585786 14.25 1C14.25 1.41421 13.9142 1.75 13.5 1.75H6.5C6.08579 1.75 5.75 1.41421 5.75 1Z" fill="#B70404"/>
<path fill-rule="evenodd" clip-rule="evenodd" d="M17.5303 3.46967C17.8232 3.76256 17.8232 4.23744 17.5303 4.53033L16.0303 6.03033C15.7374 6.32322 15.2626 6.32322 14.9697 6.03033C14.6768 5.73744 14.6768 5.26256 14.9697 4.96967L16.4697 3.46967C16.7626 3.17678 17.2374 3.17678 17.5303 3.46967Z" fill="#B70404"/>
<path fill-rule="evenodd" clip-rule="evenodd" d="M10 7.25C10.4142 7.25 10.75 7.58579 10.75 8V12.5C10.75 12.9142 10.4142 13.25 10 13.25C9.58579 13.25 9.25 12.9142 9.25 12.5V8C9.25 7.58579 9.58579 7.25 10 7.25Z" fill="#B70404"/>
</svg>
