<svg width="22" height="22" viewBox="0 0 22 22" fill="none" xmlns="http://www.w3.org/2000/svg">
<path fill-rule="evenodd" clip-rule="evenodd" d="M0.25 10.957C0.25 5.01997 5.06294 0.207031 11 0.207031C16.9371 0.207031 21.75 5.01997 21.75 10.957C21.75 16.8941 16.9371 21.707 11 21.707C5.06294 21.707 0.25 16.8941 0.25 10.957ZM11 1.70703C5.89136 1.70703 1.75 5.84839 1.75 10.957C1.75 16.0657 5.89136 20.207 11 20.207C16.1086 20.207 20.25 16.0657 20.25 10.957C20.25 5.84839 16.1086 1.70703 11 1.70703Z" fill="#222222"/>
<path fill-rule="evenodd" clip-rule="evenodd" d="M11.0041 4.20703C11.4183 4.20707 11.7541 4.54289 11.754 4.95711L11.7534 10.6508L15.7734 14.6708C16.0663 14.9637 16.0663 15.4386 15.7734 15.7315C15.4806 16.0244 15.0057 16.0244 14.7128 15.7315L10.4731 11.4918C10.3324 11.3511 10.2534 11.1603 10.2534 10.9614L10.254 4.95696C10.2541 4.54274 10.5899 4.20699 11.0041 4.20703Z" fill="#222222"/>
</svg>
