<svg width="24" height="24" viewBox="0 0 24 24" fill="none" xmlns="http://www.w3.org/2000/svg">
<rect width="24" height="24" rx="12" fill="#1877F2"/>
<path d="M15.9724 9.48998C15.9764 9.59998 15.9764 9.70498 15.9764 9.81498C15.9805 13.15 13.9171 17 10.1438 17C9.03087 17 7.93826 16.605 7 15.865C7.16247 15.89 7.32494 15.9 7.48741 15.9C8.40942 15.9 9.30707 15.52 10.0341 14.815C9.15678 14.795 8.38505 14.09 8.11698 13.06C8.42567 13.135 8.74249 13.12 9.04305 13.015C8.08855 12.785 7.40211 11.75 7.39805 10.545C7.39805 10.535 7.39805 10.525 7.39805 10.515C7.68237 10.71 8.00325 10.82 8.32819 10.83C7.43054 10.09 7.15028 8.61497 7.69456 7.45997C8.73842 9.03997 10.2738 9.99498 11.9228 10.1C11.7563 9.22498 11.9838 8.30497 12.5158 7.68497C13.3404 6.72997 14.6401 6.77997 15.42 7.79497C15.879 7.68497 16.3217 7.47497 16.7238 7.17997C16.5695 7.76497 16.2486 8.25997 15.8221 8.57497C16.2283 8.51497 16.6263 8.37997 17 8.17997C16.7238 8.68997 16.3745 9.12997 15.9724 9.48998Z" fill="white"/>
</svg>
