<svg width="22" height="22" viewBox="0 0 22 22" fill="none" xmlns="http://www.w3.org/2000/svg">
<path d="M0.25 11C0.25 5.06294 5.06294 0.25 11 0.25C16.9371 0.25 21.75 5.06294 21.75 11C21.75 16.9371 16.9371 21.75 11 21.75C5.06294 21.75 0.25 16.9371 0.25 11ZM11 1.75C5.89136 1.75 1.75 5.89136 1.75 11C1.75 16.1086 5.89136 20.25 11 20.25C16.1086 20.25 20.25 16.1086 20.25 11C20.25 5.89136 16.1086 1.75 11 1.75Z" fill="#505050"/>
<path fill-rule="evenodd" clip-rule="evenodd" d="M0.25 11C0.25 5.06294 5.06294 0.25 11 0.25C16.9371 0.25 21.75 5.06294 21.75 11C21.75 16.9371 16.9371 21.75 11 21.75C5.06294 21.75 0.25 16.9371 0.25 11ZM11 1.75C5.89136 1.75 1.75 5.89136 1.75 11C1.75 16.1086 5.89136 20.25 11 20.25C16.1086 20.25 20.25 16.1086 20.25 11C20.25 5.89136 16.1086 1.75 11 1.75Z" fill="#505050"/>
<path d="M10.4697 7.46967C10.7626 7.17678 11.2374 7.17678 11.5303 7.46967L16.0303 11.9697C16.3232 12.2626 16.3232 12.7374 16.0303 13.0303C15.7374 13.3232 15.2626 13.3232 14.9697 13.0303L11 9.06066L7.03033 13.0303C6.73744 13.3232 6.26256 13.3232 5.96967 13.0303C5.67678 12.7374 5.67678 12.2626 5.96967 11.9697L10.4697 7.46967Z" fill="#505050"/>
</svg>
