<svg width="17" height="18" viewBox="0 0 17 18" fill="none" xmlns="http://www.w3.org/2000/svg">
<path d="M9.0013 1.79163C7.73565 1.79163 6.70964 2.81764 6.70964 4.08329C6.70964 5.34895 7.73565 6.37496 9.0013 6.37496C10.267 6.37496 11.293 5.34895 11.293 4.08329C11.293 2.81764 10.267 1.79163 9.0013 1.79163ZM5.45964 4.08329C5.45964 2.12728 7.04529 0.541626 9.0013 0.541626C10.9573 0.541626 12.543 2.12728 12.543 4.08329C12.543 6.0393 10.9573 7.62496 9.0013 7.62496C7.04529 7.62496 5.45964 6.0393 5.45964 4.08329Z" fill="#242B35"/>
<path d="M8.16797 10.5416C4.29978 10.5416 1.29297 13.3137 1.29297 16.5833C1.29297 16.9285 1.01315 17.2083 0.667969 17.2083C0.322791 17.2083 0.0429688 16.9285 0.0429688 16.5833C0.0429688 12.489 3.75191 9.29163 8.16797 9.29163C8.51315 9.29163 8.79297 9.57145 8.79297 9.91663C8.79297 10.2618 8.51315 10.5416 8.16797 10.5416Z" fill="#242B35"/>
<path d="M13.976 10.7247L9.80936 14.8914C9.69215 15.0086 9.6263 15.1675 9.6263 15.3333V17C9.6263 17.3451 9.90612 17.625 10.2513 17.625H11.918C12.0837 17.625 12.2427 17.5591 12.3599 17.4419L16.5266 13.2752C16.7707 13.0312 16.7707 12.6354 16.5266 12.3914L14.8599 10.7247C14.6158 10.4806 14.2201 10.4806 13.976 10.7247ZM10.8763 15.5922L14.418 12.0505L15.2008 12.8333L11.6591 16.375H10.8763V15.5922Z" fill="#242B35"/>
</svg>
