<svg width="14" height="16" viewBox="0 0 14 16" fill="none" xmlns="http://www.w3.org/2000/svg">
<path d="M4.83333 4C4.83333 2.80338 5.80338 1.83333 7 1.83333C8.19662 1.83333 9.16667 2.80338 9.16667 4C9.16667 5.19662 8.19662 6.16667 7 6.16667C5.80338 6.16667 4.83333 5.19662 4.83333 4ZM7 0.833332C5.2511 0.833332 3.83333 2.2511 3.83333 4C3.83333 5.7489 5.2511 7.16667 7 7.16667C8.7489 7.16667 10.1667 5.7489 10.1667 4C10.1667 2.2511 8.7489 0.833332 7 0.833332ZM7 8.16667C3.41016 8.16667 0.5 11.0768 0.5 14.6667C0.5 14.9428 0.723858 15.1667 1 15.1667C1.27614 15.1667 1.5 14.9428 1.5 14.6667C1.5 11.6291 3.96244 9.16667 7 9.16667C10.0376 9.16667 12.5 11.6291 12.5 14.6667C12.5 14.9428 12.7239 15.1667 13 15.1667C13.2761 15.1667 13.5 14.9428 13.5 14.6667C13.5 11.0768 10.5898 8.16667 7 8.16667Z" fill="white"/>
</svg>
