<svg width="14" height="16" viewBox="0 0 14 16" fill="none" xmlns="http://www.w3.org/2000/svg">
<path d="M4.83333 4.00001C4.83333 2.80339 5.80338 1.83334 7 1.83334C8.19662 1.83334 9.16667 2.80339 9.16667 4.00001C9.16667 5.19663 8.19662 6.16668 7 6.16668C5.80338 6.16668 4.83333 5.19663 4.83333 4.00001ZM7 0.833344C5.2511 0.833344 3.83333 2.25111 3.83333 4.00001C3.83333 5.74891 5.2511 7.16668 7 7.16668C8.7489 7.16668 10.1667 5.74891 10.1667 4.00001C10.1667 2.25111 8.7489 0.833344 7 0.833344ZM7 8.16668C3.41016 8.16668 0.5 11.0768 0.5 14.6667C0.5 14.9428 0.723858 15.1667 1 15.1667C1.27614 15.1667 1.5 14.9428 1.5 14.6667C1.5 11.6291 3.96244 9.16668 7 9.16668C10.0376 9.16668 12.5 11.6291 12.5 14.6667C12.5 14.9428 12.7239 15.1667 13 15.1667C13.2761 15.1667 13.5 14.9428 13.5 14.6667C13.5 11.0768 10.5898 8.16668 7 8.16668Z" fill="#3337BF"/>
</svg>
