<svg width="208" height="40" viewBox="0 0 208 40" fill="none" xmlns="http://www.w3.org/2000/svg">
<path fill-rule="evenodd" clip-rule="evenodd" d="M14.5834 3.33333C14.5834 2.64298 15.143 2.08333 15.8334 2.08333H20.8334C21.5237 2.08333 22.0834 2.64298 22.0834 3.33333C22.0834 4.13581 23.0027 5.41667 25 5.41667C26.9974 5.41667 27.9167 4.13581 27.9167 3.33333C27.9167 2.64298 28.4763 2.08333 29.1667 2.08333H34.1667C34.857 2.08333 35.4167 2.64298 35.4167 3.33333V28.3333C35.4167 29.0237 34.857 29.5833 34.1667 29.5833H29.1667C28.4763 29.5833 27.9167 29.0237 27.9167 28.3333C27.9167 27.4529 27.0225 26.25 25 26.25C24.3097 26.25 23.75 25.6904 23.75 25C23.75 24.3096 24.3097 23.75 25 23.75C27.4855 23.75 29.5959 25.0962 30.2255 27.0833H32.9167V4.58333H30.2135C29.5728 6.50686 27.4886 7.91667 25 7.91667C22.5115 7.91667 20.4273 6.50686 19.7865 4.58333H17.0834V15C17.0834 15.6904 16.5237 16.25 15.8334 16.25C15.143 16.25 14.5834 15.6904 14.5834 15V3.33333Z" fill="#222222"/>
<path fill-rule="evenodd" clip-rule="evenodd" d="M5.41669 11.6667C5.41669 10.9763 5.97633 10.4167 6.66669 10.4167H11.6667C12.357 10.4167 12.9167 10.9763 12.9167 11.6667C12.9167 12.4691 13.836 13.75 15.8334 13.75C17.8307 13.75 18.75 12.4691 18.75 11.6667C18.75 10.9763 19.3097 10.4167 20 10.4167H25C25.6904 10.4167 26.25 10.9763 26.25 11.6667V36.6667C26.25 37.357 25.6904 37.9167 25 37.9167H20C19.3097 37.9167 18.75 37.357 18.75 36.6667C18.75 35.7863 17.8559 34.5833 15.8334 34.5833C13.8109 34.5833 12.9167 35.7863 12.9167 36.6667C12.9167 37.357 12.357 37.9167 11.6667 37.9167H6.66669C5.97633 37.9167 5.41669 37.357 5.41669 36.6667V11.6667ZM7.91669 12.9167V35.4167H10.6079C11.2375 33.4295 13.3479 32.0833 15.8334 32.0833C18.3188 32.0833 20.4292 33.4295 21.0588 35.4167H23.75V12.9167H21.0469C20.4061 14.8402 18.3219 16.25 15.8334 16.25C13.3448 16.25 11.2606 14.8402 10.6198 12.9167H7.91669Z" fill="#222222"/>
<path d="M11.6667 21.6667C12.5872 21.6667 13.3334 20.9205 13.3334 20C13.3334 19.0795 12.5872 18.3333 11.6667 18.3333C10.7462 18.3333 10 19.0795 10 20C10 20.9205 10.7462 21.6667 11.6667 21.6667Z" fill="#222222"/>
<path d="M15.8334 21.6667C16.7538 21.6667 17.5 20.9205 17.5 20C17.5 19.0795 16.7538 18.3333 15.8334 18.3333C14.9129 18.3333 14.1667 19.0795 14.1667 20C14.1667 20.9205 14.9129 21.6667 15.8334 21.6667Z" fill="#222222"/>
<path d="M20 21.6667C20.9205 21.6667 21.6667 20.9205 21.6667 20C21.6667 19.0795 20.9205 18.3333 20 18.3333C19.0795 18.3333 18.3334 19.0795 18.3334 20C18.3334 20.9205 19.0795 21.6667 20 21.6667Z" fill="#222222"/>
<g clip-path="url(#clip0_1_425)">
<path d="M162.56 8.0082H120.625C120.519 8.00789 120.413 8.02025 120.31 8.0451C119.956 8.12234 119.637 8.33859 119.407 8.65662C119.178 8.97465 119.052 9.37455 119.052 9.78749V30.192C119.052 30.6639 119.215 31.1165 119.506 31.4502C119.797 31.7838 120.192 31.9713 120.603 31.9713C120.681 31.9694 120.759 31.9612 120.835 31.9467H136.923C137.128 31.9467 137.33 31.9006 137.519 31.811C137.707 31.7213 137.879 31.59 138.023 31.4244C138.168 31.2588 138.282 31.0622 138.36 30.8458C138.438 30.6294 138.479 30.3975 138.479 30.1633C138.479 29.6899 138.315 29.2359 138.023 28.9008C137.732 28.5657 137.336 28.3769 136.923 28.3758H122.162V21.7875H136.938C137.338 21.7655 137.715 21.5678 137.991 21.2354C138.268 20.9029 138.422 20.4613 138.422 20.0021C138.422 19.5428 138.268 19.1012 137.991 18.7687C137.715 18.4363 137.338 18.2386 136.938 18.2166H122.162V11.575H147.52V30.2125C147.521 30.6804 147.684 31.1288 147.973 31.4593C148.261 31.7898 148.653 31.9754 149.061 31.9754H149.093C149.501 31.9754 149.892 31.7898 150.181 31.4593C150.47 31.1288 150.633 30.6804 150.634 30.2125V11.575H162.56C162.973 11.575 163.368 11.3871 163.66 11.0526C163.952 10.7182 164.116 10.2646 164.116 9.7916C164.116 9.31861 163.952 8.865 163.66 8.53055C163.368 8.1961 162.973 8.0082 162.56 8.0082Z" fill="#222222"/>
<path d="M184.036 28.3799H167.723C166.864 28.3799 166.168 29.1784 166.168 30.1633C166.168 31.1483 166.864 31.9467 167.723 31.9467H184.036C184.895 31.9467 185.591 31.1483 185.591 30.1633C185.591 29.1784 184.895 28.3799 184.036 28.3799Z" fill="#222222"/>
<path d="M184.036 18.2166H167.723C167.323 18.2386 166.946 18.4363 166.669 18.7687C166.393 19.1012 166.239 19.5428 166.239 20.002C166.239 20.4613 166.393 20.9029 166.669 21.2354C166.946 21.5678 167.323 21.7655 167.723 21.7875H184.036C184.436 21.7655 184.813 21.5678 185.09 21.2354C185.366 20.9029 185.52 20.4613 185.52 20.002C185.52 19.5428 185.366 19.1012 185.09 18.7687C184.813 18.4363 184.436 18.2386 184.036 18.2166Z" fill="#222222"/>
<path d="M184.036 8H167.723C167.31 8 166.915 8.18789 166.623 8.52234C166.332 8.8568 166.168 9.31041 166.168 9.78339C166.168 10.2564 166.332 10.71 166.623 11.0444C166.915 11.3789 167.31 11.5668 167.723 11.5668H184.036C184.24 11.5668 184.443 11.5207 184.631 11.431C184.82 11.3414 184.991 11.21 185.136 11.0444C185.28 10.8788 185.395 10.6822 185.473 10.4659C185.551 10.2495 185.591 10.0176 185.591 9.78339C185.591 9.5492 185.551 9.31729 185.473 9.10092C185.395 8.88455 185.28 8.68795 185.136 8.52234C184.991 8.35674 184.82 8.22538 184.631 8.13575C184.443 8.04613 184.24 8 184.036 8Z" fill="#222222"/>
<path d="M65.8684 8.0082H49.5552C49.1427 8.0082 48.7472 8.19609 48.4555 8.53055C48.1639 8.865 48 9.31861 48 9.7916C48 10.2646 48.1639 10.7182 48.4555 11.0526C48.7472 11.3871 49.1427 11.575 49.5552 11.575H56.1548V30.192C56.1548 30.6639 56.3183 31.1165 56.6093 31.4502C56.9002 31.7838 57.2949 31.9713 57.7064 31.9713C58.1179 31.9713 58.5126 31.7838 58.8035 31.4502C59.0945 31.1165 59.258 30.6639 59.258 30.192V11.575H65.8576C66.2701 11.575 66.6656 11.3871 66.9573 11.0526C67.249 10.7182 67.4128 10.2646 67.4128 9.7916C67.4128 9.31861 67.249 8.865 66.9573 8.53055C66.6656 8.19609 66.2701 8.0082 65.8576 8.0082H65.8684Z" fill="#222222"/>
<path d="M70.8199 8.0082H70.8127C69.9558 8.0082 69.2611 8.80482 69.2611 9.78749V30.1797C69.2611 31.1624 69.9558 31.959 70.8127 31.959H70.8199C71.6768 31.959 72.3714 31.1624 72.3714 30.1797V9.78749C72.3714 8.80482 71.6768 8.0082 70.8199 8.0082Z" fill="#222222"/>
<path d="M98.3481 8.0082C97.9357 8.0082 97.5401 8.19609 97.2485 8.53055C96.9568 8.865 96.793 9.31861 96.793 9.7916V30.192C96.8121 30.6507 96.9845 31.0834 97.2744 31.4003C97.5643 31.7171 97.9494 31.8939 98.3499 31.8939C98.7504 31.8939 99.1355 31.7171 99.4254 31.4003C99.7153 31.0834 99.8877 30.6507 99.9069 30.192V9.7916C99.9059 9.31823 99.7413 8.86463 99.4491 8.5303C99.1569 8.19596 98.7609 8.0082 98.3481 8.0082Z" fill="#222222"/>
<path d="M115.373 8.0082C114.946 8.0082 114.537 8.20257 114.235 8.54856C113.933 8.89454 113.764 9.36379 113.764 9.85309V12.3129C113.764 13.9001 113.215 15.4224 112.237 16.5454C111.259 17.6685 109.932 18.3005 108.548 18.3027H102.642C102.271 18.3026 101.911 18.4495 101.624 18.7184C101.337 18.9874 101.139 19.3619 101.065 19.7786C101.042 19.9026 101.03 20.029 101.029 20.1558C101.029 20.6451 101.199 21.1143 101.501 21.4603C101.802 21.8063 102.212 22.0007 102.638 22.0007H108.544C109.927 22.0018 111.254 22.6323 112.232 23.7538C113.21 24.8754 113.759 26.3962 113.76 27.9822V30.11C113.76 30.5993 113.93 31.0686 114.232 31.4145C114.533 31.7605 114.942 31.9549 115.369 31.9549C115.796 31.9549 116.205 31.7605 116.507 31.4145C116.808 31.0686 116.978 30.5993 116.978 30.11V27.9822C116.977 26.4533 116.66 24.9463 116.053 23.585C115.446 22.2238 114.566 21.0472 113.485 20.1517C114.567 19.2571 115.448 18.0808 116.056 16.7194C116.664 15.358 116.981 13.8506 116.982 12.3211V9.86129C116.982 9.61848 116.941 9.37793 116.86 9.1534C116.78 8.92886 116.661 8.72473 116.512 8.55265C116.362 8.38058 116.185 8.24393 115.989 8.15051C115.794 8.05709 115.584 8.00874 115.373 8.0082Z" fill="#222222"/>
<path d="M205.226 20.5945C206.072 19.9824 206.769 19.1355 207.254 18.1323C207.739 17.1291 207.996 16.0018 208 14.8548C207.979 13.0157 207.323 11.2611 206.176 9.97604C205.028 8.69095 203.483 7.9803 201.879 8H189.195C188.768 8 188.359 8.19437 188.057 8.54036C187.756 8.88634 187.586 9.35559 187.586 9.84489C187.586 10.3342 187.756 10.8034 188.057 11.1494C188.359 11.4954 188.768 11.6898 189.195 11.6898H201.879C202.256 11.6679 202.633 11.734 202.986 11.8842C203.34 12.0344 203.663 12.2655 203.937 12.5634C204.21 12.8614 204.428 13.22 204.576 13.6174C204.725 14.0149 204.802 14.4428 204.802 14.8753C204.802 15.3078 204.725 15.7357 204.576 16.1332C204.428 16.5306 204.21 16.8892 203.937 17.1872C203.663 17.4851 203.34 17.7162 202.986 17.8664C202.633 18.0166 202.256 18.0827 201.879 18.0608H189.195C188.768 18.0608 188.359 18.2552 188.057 18.6012C187.756 18.9472 187.586 19.4164 187.586 19.9057C187.586 20.395 187.756 20.8643 188.057 21.2102C188.359 21.5562 188.768 21.7506 189.195 21.7506H193.331C193.433 21.7719 193.536 21.7828 193.639 21.7834H199.545C200.923 21.7855 202.244 22.4119 203.221 23.5261C204.198 24.6403 204.752 26.1521 204.761 27.7321V30.1141C204.761 30.6034 204.93 31.0727 205.232 31.4186C205.534 31.7646 205.943 31.959 206.37 31.959C206.796 31.959 207.206 31.7646 207.507 31.4186C207.809 31.0727 207.979 30.6034 207.979 30.1141V27.7321C207.979 26.388 207.735 25.0586 207.261 23.8293C206.787 22.6001 206.093 21.4982 205.226 20.5945Z" fill="#222222"/>
<path d="M92.7853 11.6693C93.2091 11.6693 93.6156 11.4762 93.9153 11.1325C94.215 10.7889 94.3833 10.3227 94.3833 9.83669C94.3833 9.35066 94.215 8.88453 93.9153 8.54086C93.6156 8.19718 93.2091 8.0041 92.7853 8.0041H78.1488C77.2954 8.0041 76.477 8.39284 75.8736 9.08481C75.2702 9.77678 74.9312 10.7153 74.9312 11.6939V28.3184C74.9312 29.297 75.2702 30.2355 75.8736 30.9275C76.477 31.6195 77.2954 32.0082 78.1488 32.0082H92.7853C93.2091 32.0082 93.6156 31.8151 93.9153 31.4714C94.215 31.1278 94.3833 30.6616 94.3833 30.1756C94.3833 29.6896 94.215 29.2234 93.9153 28.8798C93.6156 28.5361 93.2091 28.343 92.7853 28.343L78.1274 28.3225L78.1452 11.6775L92.7853 11.6693Z" fill="#222222"/>
</g>
<defs>
<clipPath id="clip0_1_425">
<rect width="160" height="24" fill="white" transform="translate(48 8)"/>
</clipPath>
</defs>
</svg>
