<svg width="12" height="13" viewBox="0 0 12 13" fill="none" xmlns="http://www.w3.org/2000/svg">
<path fill-rule="evenodd" clip-rule="evenodd" d="M0.46967 0.96967C0.762563 0.676777 1.23744 0.676777 1.53033 0.96967L11.5303 10.9697C11.8232 11.2626 11.8232 11.7374 11.5303 12.0303C11.2374 12.3232 10.7626 12.3232 10.4697 12.0303L0.46967 2.03033C0.176777 1.73744 0.176777 1.26256 0.46967 0.96967Z" fill="#242B35"/>
<path fill-rule="evenodd" clip-rule="evenodd" d="M11.5303 0.96967C11.8232 1.26256 11.8232 1.73744 11.5303 2.03033L1.53033 12.0303C1.23744 12.3232 0.762563 12.3232 0.46967 12.0303C0.176777 11.7374 0.176777 11.2626 0.46967 10.9697L10.4697 0.96967C10.7626 0.676777 11.2374 0.676777 11.5303 0.96967Z" fill="#242B35"/>
</svg>
